<?xml version="1.0" encoding="UTF-8" standalone="no"?>
<svg
   xmlns:dc="http://purl.org/dc/elements/1.1/"
   xmlns:cc="http://creativecommons.org/ns#"
   xmlns:rdf="http://www.w3.org/1999/02/22-rdf-syntax-ns#"
   xmlns:svg="http://www.w3.org/2000/svg"
   xmlns="http://www.w3.org/2000/svg"
   version="1.1"
   id="svg5332"
   viewBox="0 0 256.00007 256.00002"
   height="72.248894mm"
   width="72.248909mm">
  <title
     id="title5886">Cog 1</title>
  <defs
     id="defs5334" />
  <metadata
     id="metadata5337">
    <rdf:RDF>
      <cc:Work
         rdf:about="">
        <dc:format>image/svg+xml</dc:format>
        <dc:type
           rdf:resource="http://purl.org/dc/dcmitype/StillImage" />
        <dc:title>Cog 1</dc:title>
        <cc:license
           rdf:resource="http://creativecommons.org/publicdomain/zero/1.0/" />
        <dc:creator>
          <cc:Agent>
            <dc:title>Josh &quot;Cheeseness&quot; Bush</dc:title>
          </cc:Agent>
        </dc:creator>
        <dc:description>Originally created for the official shirt for the 2014 Open Source Developers' Conference held at Griffith University.</dc:description>
      </cc:Work>
      <cc:License
         rdf:about="http://creativecommons.org/publicdomain/zero/1.0/">
        <cc:permits
           rdf:resource="http://creativecommons.org/ns#Reproduction" />
        <cc:permits
           rdf:resource="http://creativecommons.org/ns#Distribution" />
        <cc:permits
           rdf:resource="http://creativecommons.org/ns#DerivativeWorks" />
      </cc:License>
    </rdf:RDF>
  </metadata>
  <g
     transform="translate(-362.5464,-406.21469)"
     id="layer1">
    <path
       id="path4611-8"
       d="m 460.5969,406.28211 c -1.2302,0.12121 -2.5991,0.35097 -4.1208,0.76219 -24.3458,6.52347 6.10759,28.3125 -15.7203,40.91533 -21.8277,12.60162 -25.4756,-24.66726 -43.2981,-6.84519 -17.8223,17.82202 19.4352,21.47087 6.833,43.29868 -12.6024,21.82661 -34.3916,-8.62609 -40.9149,15.71938 -6.5236,24.34547 27.5778,8.87774 27.5778,34.08219 0,25.20445 -34.1014,9.72461 -27.5778,34.07008 6.5233,24.34547 28.3125,-6.09632 40.9149,15.73149 12.6022,21.82902 -24.6553,25.46454 -6.833,43.28662 17.8225,17.82323 21.4704,-19.43474 43.2981,-6.83192 21.82789,12.60163 -8.6255,34.39067 15.7203,40.91413 24.34589,6.52339 8.86569,-27.56605 34.07029,-27.56605 25.2046,0 9.7361,34.08944 34.082,27.56605 24.3458,-6.52346 -6.1076,-28.3125 15.7202,-40.91413 21.8279,-12.60282 25.4758,24.65515 43.2981,6.83192 17.8225,-17.82208 -19.4469,-21.4576 -6.8445,-43.28662 12.6022,-21.82781 34.3914,8.61398 40.9146,-15.73149 6.5237,-24.34547 -27.566,-8.86563 -27.566,-34.07008 0,-25.20445 34.0897,-9.73672 27.566,-34.08219 -6.5232,-24.34547 -28.3124,6.10723 -40.9146,-15.71938 -12.6024,-21.82781 24.667,-25.47666 6.8445,-43.29868 -17.8223,-17.82207 -21.4702,19.44681 -43.2981,6.84519 -21.8278,-12.60283 8.6256,-34.39186 -15.7202,-40.91533 -24.3459,-6.5234 -8.8774,27.56605 -34.082,27.56605 -23.6293,0 -11.497,-29.95785 -29.94949,-28.32945 z m 29.95139,71.90763 c 14.6688,-10e-4 29.2479,6.0359 39.6209,16.40775 10.3731,10.37192 16.4124,24.94918 16.4126,39.61841 -3e-4,14.66802 -6.0396,29.24649 -16.4127,39.6184 -10.373,10.37071 -24.952,16.40775 -39.6208,16.40655 -14.6673,0 -29.24419,-6.03831 -39.61569,-16.40896 -10.3714,-10.37192 -16.4096,-24.94797 -16.4099,-39.61599 2e-4,-14.66802 6.0383,-29.24408 16.4098,-39.61599 10.3714,-10.37066 24.94849,-16.40896 39.61579,-16.41017 z"
       style="color:#000000;clip-rule:nonzero;display:inline;overflow:visible;visibility:visible;color-interpolation:sRGB;color-interpolation-filters:linearRGB;fill:#808080;fill-opacity:1;fill-rule:nonzero;stroke:none;stroke-width:1px;marker:none;color-rendering:auto;image-rendering:auto;shape-rendering:auto;text-rendering:auto;enable-background:accumulate" />
  </g>
</svg>
