<?xml version="1.0" encoding="UTF-8" standalone="no"?>
<svg
   xmlns:dc="http://purl.org/dc/elements/1.1/"
   xmlns:cc="http://creativecommons.org/ns#"
   xmlns:rdf="http://www.w3.org/1999/02/22-rdf-syntax-ns#"
   xmlns:svg="http://www.w3.org/2000/svg"
   xmlns="http://www.w3.org/2000/svg"
   version="1.1"
   id="svg5332"
   viewBox="0 0 256.00007 256.00002"
   height="72.248894mm"
   width="72.248909mm">
  <title
     id="title6264">Lightbulb</title>
  <defs
     id="defs5334" />
  <metadata
     id="metadata5337">
    <rdf:RDF>
      <cc:Work
         rdf:about="">
        <dc:format>image/svg+xml</dc:format>
        <dc:type
           rdf:resource="http://purl.org/dc/dcmitype/StillImage" />
        <dc:title>Lightbulb</dc:title>
        <cc:license
           rdf:resource="http://creativecommons.org/publicdomain/zero/1.0/" />
        <dc:creator>
          <cc:Agent>
            <dc:title>Josh &quot;Cheeseness&quot; Bush</dc:title>
          </cc:Agent>
        </dc:creator>
        <dc:description>Originally created for the official shirt for the 2014 Open Source Developers' Conference held at Griffith University.</dc:description>
        <dc:subject>
          <rdf:Bag>
            <rdf:li>light bulb</rdf:li>
          </rdf:Bag>
        </dc:subject>
        <dc:date>2014-10-22</dc:date>
      </cc:Work>
      <cc:License
         rdf:about="http://creativecommons.org/publicdomain/zero/1.0/">
        <cc:permits
           rdf:resource="http://creativecommons.org/ns#Reproduction" />
        <cc:permits
           rdf:resource="http://creativecommons.org/ns#Distribution" />
        <cc:permits
           rdf:resource="http://creativecommons.org/ns#DerivativeWorks" />
      </cc:License>
    </rdf:RDF>
  </metadata>
  <g
     transform="translate(-362.5464,-406.21469)"
     id="layer1">
    <path
       id="path4859-8"
       d="m 490.54589,406.2293 c -22.0814,0 -43.9496,9.0603 -59.5635,24.674 -15.6139,15.6141 -24.6712,37.4822 -24.6712,59.5637 0,22.0626 8.7581,46.5238 24.4328,68.3394 l 0.01,0 c 15.1154,21.0433 25.5083,51.9917 25.6512,72.142 0.079,11.0891 5.1092,18.3737 11.8662,22.4961 2.4194,1.4761 5.037,2.5714 7.7254,3.3934 0.3734,0.9522 1.0041,1.736 1.6599,2.2749 0.9955,0.8184 2.1153,1.342 3.3726,1.7776 2.5147,0.8714 5.6255,1.3243 9.0674,1.3243 l 0.9006,0 c 3.4419,0 6.5527,-0.4529 9.0674,-1.3243 1.2573,-0.4356 2.3771,-0.9592 3.3727,-1.7776 0.6563,-0.5392 1.2866,-1.3246 1.6598,-2.278 2.6882,-0.8216 5.3058,-1.9169 7.7254,-3.3931 6.7571,-4.1223 11.7875,-11.4072 11.8662,-22.4963 0.1431,-20.154 10.5401,-51.1101 25.6601,-72.1537 15.6746,-21.8156 24.4328,-46.2767 24.4328,-68.3393 0,-22.0816 -9.0573,-43.9496 -24.6712,-59.5637 -15.6138,-15.6138 -37.4819,-24.674 -59.5633,-24.674 z m 0.044,4.5204 c 20.8259,0.03 41.5969,8.6238 56.3232,23.35 14.7366,14.7366 23.3468,35.5265 23.3468,56.3673 0,20.8591 -8.3815,44.5425 -23.5852,65.7023 l -0.015,0.031 c -5.4533,7.593 -10.2678,16.3034 -14.2648,25.3332 -4.7554,4.1415 -11.8881,7.3928 -20.4568,9.4293 l 21.4516,-91.6833 a 3.7674215,3.7674215 0 0 0 -3.5993,-4.6762 3.7674215,3.7674215 0 0 0 -3.7347,2.9606 l 0,0 c -0.7231,0.2226 -1.3821,0.3828 -1.2419,0.3943 0.1946,0.031 -0.3521,-0.1921 -1.1184,-0.8094 -0.7663,-0.6161 -1.754,-1.64 -3.5816,-1.7891 -1.8272,-0.1464 -2.9658,0.6944 -3.8318,1.1769 -0.6417,0.3575 -1.1277,0.5176 -1.2596,0.5826 -0.1174,-0.085 -0.5565,-0.3166 -1.1213,-0.771 -0.7659,-0.6155 -1.7533,-1.6388 -3.5787,-1.7892 l 0,0 c -1.8264,-0.1494 -2.9661,0.6948 -3.8318,1.1773 -0.6419,0.3578 -1.1278,0.5173 -1.2596,0.5826 -0.1171,-0.085 -0.5564,-0.3169 -1.1213,-0.7711 -0.7663,-0.6161 -1.7541,-1.6399 -3.5816,-1.7894 -1.8074,-0.1464 -2.9754,0.7802 -3.7082,1.2627 -0.4498,0.2959 -0.7143,0.4179 -0.827,0.4767 -0.1067,-0.094 -0.4948,-0.3196 -1.1065,-0.8064 -0.8858,-0.7045 -2.3498,-1.7421 -4.3351,-1.7421 -1.9853,0 -3.4492,1.0376 -4.335,1.7421 -0.6095,0.4847 -0.995,0.7125 -1.1037,0.8064 -0.1104,-0.058 -0.376,-0.1769 -0.8299,-0.4767 -0.7328,-0.4825 -1.9008,-1.4094 -3.7082,-1.2627 l 0,0 c -1.8275,0.1495 -2.8123,1.1733 -3.5787,1.7894 -0.5648,0.4542 -1.004,0.6863 -1.1212,0.7711 -0.1318,-0.064 -0.6177,-0.2257 -1.2596,-0.5826 -0.8663,-0.4828 -2.0064,-1.3276 -3.8348,-1.1773 -1.8275,0.1495 -2.8123,1.1734 -3.5787,1.7892 -0.5649,0.4544 -1.004,0.6865 -1.1213,0.771 -0.132,-0.064 -0.6178,-0.2257 -1.2596,-0.5826 -0.866,-0.4825 -2.0046,-1.3255 -3.8318,-1.1769 l 0,0 c -1.8275,0.1494 -2.8123,1.173 -3.5787,1.7891 -0.7663,0.6161 -1.313,0.8253 -1.1183,0.8094 0.14,-0.03 -0.5191,-0.1708 -1.2419,-0.3943 l 0,0 a 3.7674215,3.7674215 0 0 0 -3.8495,-2.9579 3.7674215,3.7674215 0 0 0 -3.4845,4.6735 l 21.4515,91.6833 c -8.5725,-2.0374 -15.7072,-5.2911 -20.4626,-9.4351 -3.9998,-9.0356 -8.8161,-17.7497 -14.2736,-25.3451 -15.2037,-21.1601 -23.5852,-44.8435 -23.5852,-65.7026 0,-20.8408 8.6102,-41.6307 23.3468,-56.3676 14.7366,-14.7363 35.5266,-23.3497 56.3674,-23.3497 a 2.2604529,2.2604529 0 0 0 0.044,0 z m -0.044,86.7185 c 0.4786,0 0.8133,0.1983 1.5185,0.7595 0.7052,0.5609 1.6265,1.6744 3.5258,1.8306 1.8075,0.1464 2.978,-0.7802 3.7111,-1.2627 0.4914,-0.3236 0.7656,-0.4414 0.8535,-0.4914 0.1201,0.085 0.5567,0.3136 1.1183,0.7653 0.7661,0.6158 1.7515,1.639 3.5787,1.7891 l 0,0 c 1.8281,0.1494 2.9658,-0.6945 3.8318,-1.1773 0.6417,-0.3575 1.1278,-0.5152 1.2596,-0.5795 0.1174,0.085 0.5566,0.3141 1.1213,0.768 0.7661,0.6161 1.7515,1.6393 3.5787,1.7894 1.8274,0.1494 2.9684,-0.6917 3.8347,-1.1742 0.6408,-0.3572 1.127,-0.5173 1.2596,-0.5829 0.1174,0.085 0.5566,0.3142 1.1213,0.7683 0.7661,0.6158 1.7515,1.6391 3.5787,1.7894 l 0,0 c 0.1686,0 0.309,0 0.4679,0 l -21.0601,90.0089 c -4.2293,0.5746 -8.6908,0.8799 -13.3053,0.8799 -4.6146,0 -9.0761,-0.3053 -13.3054,-0.8799 l -21.0601,-90.0058 c 0.1589,-6e-4 0.2995,0.031 0.4679,0 l 0,0 c 1.8271,-0.1495 2.8125,-1.1764 3.5787,-1.7922 0.5646,-0.4538 1.0018,-0.6841 1.1184,-0.768 0.1326,0.064 0.6205,0.2257 1.2625,0.5826 0.8663,0.4828 2.0043,1.3267 3.8318,1.1773 l 0,0 c 1.8271,-0.1495 2.8125,-1.1734 3.5787,-1.7895 0.5665,-0.4553 1.0066,-0.6847 1.1213,-0.768 0.1317,0.064 0.6178,0.2227 1.2596,0.5798 0.866,0.4829 2.0036,1.3295 3.8317,1.1801 l 0,0 c 1.8272,-0.1495 2.8126,-1.1764 3.5787,-1.7925 0.5584,-0.4486 0.9901,-0.6759 1.1125,-0.7619 0.089,0.049 0.3674,0.1647 0.8593,0.4883 0.7331,0.4828 1.9007,1.4134 3.7082,1.2655 l 0,0 c 1.8993,-0.1556 2.8176,-1.2697 3.5228,-1.8303 0.7052,-0.5609 1.0429,-0.7595 1.5215,-0.7595 l 0,0 z m -19.4062,1.5982 0,0 c -0.01,6e-4 0.01,0 0,0 -0.01,-3e-4 0.01,0 0,0 z"
       style="fill:#808080;fill-opacity:1;stroke:none" />
  </g>
</svg>
